<?xml version="1.0" encoding="utf-8"?>
<!-- Generator: Adobe Illustrator 25.2.3, SVG Export Plug-In . SVG Version: 6.00 Build 0)  -->
<svg version="1.1" id="Layer_1" xmlns="http://www.w3.org/2000/svg" xmlns:xlink="http://www.w3.org/1999/xlink" x="0px" y="0px"
	 viewBox="0 0 94 94" style="enable-background:new 0 0 94 94;" xml:space="preserve">
<style type="text/css">
	.st0{fill:#DB7A5F;}
	.st1{fill:#2A2E55;}
</style>
<g transform="translate(-332 -880)">
	<circle class="st0" cx="379" cy="927" r="47"/>
	<g transform="translate(728.65 2986.097) rotate(180)">
		<path class="st1" d="M327.2,2056.9l15-15.1c0.9-0.9,2.5-0.9,3.4,0c0.9,0.9,0.9,2.5,0,3.4l0,0l-10.9,10.9h35.2
			c1.3,0,2.4,1.1,2.4,2.4c0,1.3-1.1,2.4-2.4,2.4h-35.2l11,11c0.9,0.9,1,2.4,0,3.4c0,0,0,0,0,0c-0.9,0.9-2.4,1-3.4,0c0,0,0,0,0,0
			l-15-15.1C326.2,2059.4,326.2,2057.9,327.2,2056.9C327.1,2056.9,327.2,2056.9,327.2,2056.9z"/>
	</g>
</g>
</svg>
