<?xml version="1.0" encoding="utf-8"?>
<!-- Generator: Adobe Illustrator 25.2.3, SVG Export Plug-In . SVG Version: 6.00 Build 0)  -->
<svg version="1.1" id="Layer_1" xmlns="http://www.w3.org/2000/svg" xmlns:xlink="http://www.w3.org/1999/xlink" x="0px" y="0px"
	 viewBox="0 0 41.6 41.6" style="enable-background:new 0 0 41.6 41.6;" xml:space="preserve">
<style type="text/css">
	.st0{fill:#DB7A5F;}
</style>
<g transform="translate(0 0)">
	<path class="st0" d="M39.8,22.2c-0.5,0-0.9-0.2-1.3-0.5L20.8,4.4L3.1,21.7c-0.7,0.7-1.9,0.7-2.6,0c-0.7-0.7-0.7-1.9,0-2.6l19-18.5
		c0.7-0.7,1.8-0.7,2.5,0l19,18.5c0.7,0.7,0.7,1.8,0,2.6C40.8,22,40.3,22.2,39.8,22.2z M35.8,39.8V22.1c0-1-0.8-1.8-1.8-1.8
		c-1,0-1.8,0.8-1.8,1.8V38h-5.7v-9.7c0-1.3-1.1-2.4-2.4-2.4h-6.7c-1.3,0-2.4,1.1-2.4,2.4V38H9.4V22.1c0-1-0.8-1.8-1.8-1.8
		s-1.8,0.8-1.8,1.8v17.7c0,1,0.8,1.8,1.8,1.8h9.3c1,0,1.8-0.8,1.8-1.8V29.5H23v10.3c0,1,0.8,1.8,1.8,1.8h9.3
		C35,41.6,35.8,40.8,35.8,39.8C35.8,39.8,35.8,39.8,35.8,39.8L35.8,39.8z"/>
</g>
</svg>
